<svg width="200" height="150" xmlns="http://www.w3.org/2000/svg">
  <path fill="#FF5733" d="M88.1,13.6c-6.1-4.8-14.3-7.8-23.4-7.8c-10,0-18.9,3.7-25.5,9.8c-6.5,6-10.1,14-10.1,22.7c0,4.3,1,8.4,2.7,12.1c-6.6,1.2-11.6,6.8-11.6,13.8c0,7.8,6.4,14.1,14.3,14.1h43.6c8,0,14.3-6.3,14.3-14.1c0-7-5-12.6-11.6-13.8c1.6-3.7,2.7-7.8,2.7-12.1c0-8.7-3.6-16.7-10.1-22.7z"/>
  <path fill="#FFC300" d="M88.1,13.6c-6.1-4.8-14.3-7.8-23.4-7.8c-10,0-18.9,3.7-25.5,9.8c-6.5,6-10.1,14-10.1,22.7c0,4.3,1,8.4,2.7,12.1c-6.6,1.2-11.6,6.8-11.6,13.8c0,7.8,6.4,14.1,14.3,14.1h43.6c8,0,14.3-6.3,14.3-14.1c0-7-5-12.6-11.6-13.8c1.6-3.7,2.7-7.8,2.7-12.1c0-8.7-3.6-16.7-10.1-22.7z"/>
</svg>
